<svg xmlns="http://www.w3.org/2000/svg" xml:space="preserve" width="471.42422" height="300" viewBox="0 0 471.42422 299.99999"><path d="M328.621 474.192c-11.508 0-22.154-3.618-30.925-9.74-8.768 6.122-19.415 9.74-30.923 9.74-29.888 0-54.116-24.228-54.116-54.116 0-29.888 24.228-54.117 54.116-54.117 11.508 0 22.155 3.62 30.923 9.743 8.77-6.123 19.417-9.743 30.925-9.743 29.887 0 54.114 24.23 54.114 54.117 0 29.888-24.227 54.116-54.114 54.116z" style="fill:#fff;fill-opacity:1;fill-rule:nonzero;stroke:none" transform="matrix(2.7718 0 0 -2.7718 -589.442 1314.365)"/><path d="M378.664 440.694a53.927 53.927 0 0 1-3.033 6.203l-57.445-43.742-20.49-15.601-8.006-5.054-26.06-16.447a53.89 53.89 0 0 1 12.93.797l15.113 13.692 6.023 5.46 18.804 12.7zM379.622 438.198l-81.392-62.895a53.84 53.84 0 0 1 30.391-9.344c29.887 0 54.114 24.23 54.114 54.117a53.986 53.986 0 0 1-3.113 18.122zM266.773 474.192c-29.887 0-54.116-24.229-54.116-54.116a54.022 54.022 0 0 1 3.117-18.129l81.377 62.914a53.846 53.846 0 0 1-30.378 9.33zM297.696 430.423l18.335 12.084 38.261 25.217a53.574 53.574 0 0 1-7.009 3.163l-32.617-25.604-16.97-13.327-23.073-15.46-48.296-32.366a54.358 54.358 0 0 1 4.901-4.854l43.748 33.663zM297.696 419.309l21.486 14.296 43.21 28.755a54.652 54.652 0 0 1-5.874 4.094l-38.264-29.66-20.558-15.933-21.485-14.304-43.204-28.767a54.36 54.36 0 0 1 5.874-4.093l38.258 29.67zM297.696 408.215l23.074 15.453 48.3 32.352a54.596 54.596 0 0 1-4.9 4.855l-43.755-33.643-22.719-17.47-18.343-12.098-38.254-25.231a52.967 52.967 0 0 1 7.014-3.165l32.61 25.61zM297.696 441.52l13.827 8.98 32.875 21.352a53.888 53.888 0 0 1-8.563 1.86l-25.991-20.882-12.148-9.76-22.635-15.242-54.157-36.47a54.862 54.862 0 0 1 3.984-5.546l49.752 38.066zM297.696 452.633l7.991 5.036 26.051 16.432a54.304 54.304 0 0 1-12.85-.785l-15.167-13.707-6.025-5.442-18.793-12.701-62.174-42.01a53.802 53.802 0 0 1 3.039-6.204l57.453 43.777zM297.696 397.1l22.636 15.235 54.162 36.454a54.753 54.753 0 0 1-3.983 5.546l-49.758-38.05-23.057-17.636-13.833-8.989-32.87-21.357a53.33 53.33 0 0 1 8.56-1.86l25.989 20.886z" style="fill:#ed1c24;fill-opacity:1;fill-rule:nonzero;stroke:none" transform="matrix(2.7718 0 0 -2.7718 -589.442 1314.365)"/></svg>